<?xml version="1.0" encoding="UTF-8" standalone="no"?>
<svg
   height="24"
   viewBox="0 -960 960 960"
   width="24"
   version="1.1"
   id="svg1"
   sodipodi:docname="LightLinkedServices.svg"
   inkscape:version="1.3.2 (091e20e, 2023-11-25, custom)"
   xmlns:inkscape="http://www.inkscape.org/namespaces/inkscape"
   xmlns:sodipodi="http://sodipodi.sourceforge.net/DTD/sodipodi-0.dtd"
   xmlns="http://www.w3.org/2000/svg"
   xmlns:svg="http://www.w3.org/2000/svg">
  <defs
     id="defs1" />
  <sodipodi:namedview
     id="namedview1"
     pagecolor="#ffffff"
     bordercolor="#000000"
     borderopacity="0.25"
     inkscape:showpageshadow="2"
     inkscape:pageopacity="0.0"
     inkscape:pagecheckerboard="0"
     inkscape:deskcolor="#d1d1d1"
     inkscape:zoom="49.208333"
     inkscape:cx="11.989839"
     inkscape:cy="12"
     inkscape:window-width="2560"
     inkscape:window-height="1377"
     inkscape:window-x="1912"
     inkscape:window-y="-8"
     inkscape:window-maximized="1"
     inkscape:current-layer="svg1" />
  <path
     d="M760-600q-57 0-99-34t-56-86H354q-11 42-41.5 72.5T240-606v251q52 14 86 56t34 99q0 66-47 113T200-40q-66 0-113-47T40-200q0-57 34-99t86-56v-251q-52-14-86-56t-34-98q0-66 47-113t113-47q56 0 98 34t56 86h251q14-52 56-86t99-34q66 0 113 47t47 113q0 66-47 113t-113 47ZM200-120q33 0 56.5-24t23.5-56q0-33-23.5-56.5T200-280q-32 0-56 23.5T120-200q0 32 24 56t56 24Zm0-560q33 0 56.5-23.5T280-760q0-33-23.5-56.5T200-840q-32 0-56 23.5T120-760q0 33 24 56.5t56 23.5ZM760-40q-66 0-113-47t-47-113q0-66 47-113t113-47q66 0 113 47t47 113q0 66-47 113T760-40Zm0-80q33 0 56.5-24t23.5-56q0-33-23.5-56.5T760-280q-33 0-56.5 23.5T680-200q0 32 23.5 56t56.5 24Zm0-560q33 0 56.5-23.5T840-760q0-33-23.5-56.5T760-840q-33 0-56.5 23.5T680-760q0 33 23.5 56.5T760-680ZM200-200Zm0-560Zm560 560Zm0-560Z"
     id="path1"
     style="fill:#f9f9f9;fill-opacity:1" />
</svg>
