<?xml version="1.0" encoding="UTF-8" standalone="no"?>

<svg
   width="158.75mm"
   height="158.75mm"
   viewBox="0 0 158.75 158.75"
   version="1.1"
   id="svg1"
   xml:space="preserve"
   inkscape:version="1.3.2 (091e20e, 2023-11-25, custom)"
   sodipodi:docname="Logo.svg"
   xmlns:inkscape="http://www.inkscape.org/namespaces/inkscape"
   xmlns:sodipodi="http://sodipodi.sourceforge.net/DTD/sodipodi-0.dtd"
   xmlns="http://www.w3.org/2000/svg"
   xmlns:svg="http://www.w3.org/2000/svg"><sodipodi:namedview
     id="namedview1"
     pagecolor="#ffffff"
     bordercolor="#000000"
     borderopacity="0.25"
     inkscape:showpageshadow="2"
     inkscape:pageopacity="0.0"
     inkscape:pagecheckerboard="0"
     inkscape:deskcolor="#d1d1d1"
     inkscape:document-units="mm"
     inkscape:zoom="1.4878904"
     inkscape:cx="243.63354"
     inkscape:cy="348.14393"
     inkscape:window-width="1617"
     inkscape:window-height="1212"
     inkscape:window-x="2481"
     inkscape:window-y="58"
     inkscape:window-maximized="0"
     inkscape:current-layer="layer2" /><defs
     id="defs1"><inkscape:path-effect
       effect="fillet_chamfer"
       id="path-effect704"
       is_visible="true"
       lpeversion="1"
       nodesatellites_param="F,0,0,1,0,0,0,1 @ F,0,0,1,0,0,0,1 @ F,0,0,1,0,0,0,1 @ F,0,0,1,0,0,0,1 @ F,0,0,1,0,0,0,1 @ F,0,0,1,0,0,0,1 @ F,0,0,1,0,0,0,1 @ F,0,0,1,0,0,0,1 @ F,0,0,1,0,0,0,1 @ F,0,0,1,0,0,0,1 @ F,0,0,1,0,0,0,1 @ F,0,0,1,0,0,0,1 @ F,0,0,1,0,0,0,1 @ F,0,0,1,0,0,0,1 @ F,0,0,1,0,0,0,1 @ F,0,0,1,0,0,0,1 @ F,0,0,1,0,0,0,1 @ F,0,0,1,0,0,0,1 @ F,0,0,1,0,0,0,1 @ F,0,0,1,0,0,0,1"
       radius="0"
       unit="px"
       method="auto"
       mode="F"
       chamfer_steps="1"
       flexible="false"
       use_knot_distance="true"
       apply_no_radius="true"
       apply_with_radius="true"
       only_selected="false"
       hide_knots="false" /><inkscape:path-effect
       effect="fillet_chamfer"
       id="path-effect703"
       is_visible="true"
       lpeversion="1"
       nodesatellites_param="F,0,0,1,0,0,0,1 @ F,0,0,1,0,0,0,1 @ F,0,0,1,0,0,0,1 @ F,0,0,1,0,0,0,1 @ F,0,0,1,0,0,0,1 @ F,0,0,1,0,0,0,1 @ F,0,0,1,0,0,0,1 @ F,0,0,1,0,0,0,1 @ F,0,0,1,0,0,0,1 @ F,0,0,1,0,0,0,1 @ F,0,0,1,0,0,0,1 @ F,0,0,1,0,0,0,1 @ F,0,0,1,0,0,0,1 @ F,0,0,1,0,0,0,1 @ F,0,0,1,0,0,0,1 @ F,0,0,1,0,0,0,1 @ F,0,0,1,0,0,0,1 @ F,0,0,1,0,0,0,1 @ F,0,0,1,0,0,0,1 @ F,0,0,1,0,0,0,1"
       radius="0"
       unit="px"
       method="auto"
       mode="F"
       chamfer_steps="1"
       flexible="false"
       use_knot_distance="true"
       apply_no_radius="true"
       apply_with_radius="true"
       only_selected="false"
       hide_knots="false" /></defs><g
     inkscape:groupmode="layer"
     id="layer2"
     inkscape:label="Layer_2"
     style="display:inline"><path
       style="display:inline;opacity:1;fill:#bebebe;fill-opacity:1;stroke-width:0.264583"
       d="m 101.97587,10.185013 c 0,0 5.68571,33.116367 -17.729469,42.468986 C 68.852333,62.070072 69.534716,78.7138 69.534716,78.7138 c 0,0 -2.929623,-6.505358 -0.125742,-15.780483 -6.992694,4.034022 -31.991451,18.307013 -24.267991,39.796993 -6.825085,7.0509 -20.424207,24.97755 -14.082983,45.51821 0,0 -3.250628,-22.93742 20.244284,-40.11135 34.082894,-20.012822 50.775856,-32.093213 56.206186,-60.229889 0.13976,-0.724149 4.48709,34.744807 -57.08637,64.379339 -0.06569,0.0316 1.353431,1.71526 5.341888,2.67234 10.947081,2.62691 35.707763,6.70194 47.767922,-10.81406 0.14574,-0.21167 -5.951807,0.0831 -10.126304,-0.15351 -2.58451,-0.14649 -4.020663,-0.89418 -4.020663,-0.89418 0,0 33.576687,0.27942 36.192917,-32.356474 -4.30917,2.73608 -5.72024,4.624273 -10.62148,5.332506 5.10571,-4.928331 16.04386,-16.566725 13.65066,-33.08872 -2.71521,-18.745049 -26.63117,-32.799509 -26.63117,-32.799509 z"
       id="path702"
       sodipodi:nodetypes="cccccccssscscccsc" /><path
       style="display:inline;opacity:1;fill:#dfdfdf;fill-opacity:1;stroke-width:0.264583"
       d="m 102.46963,23.61706 -0.81922,5.431443 -0.77097,4.168668 c 0,0 0.40007,14.95008 -15.941465,27.452811 1.44602,-4.055143 2.70343,-5.846951 2.70343,-5.846951 0,0 -15.717612,10.876588 -17.886643,23.89077 -1.980419,-5.689777 -1.446021,-10.310753 -1.446021,-10.310753 0,0 -7.638759,1.854677 -14.240156,15.026037 -0.345786,-2.892042 0.188611,-4.966766 0.188611,-4.966766 0,0 -10.813714,8.707557 -9.241954,23.953641 3.586637,-10.104295 13.869359,-19.552843 18.699595,-23.181786 -0.06655,5.566765 0.328575,7.921823 0.328575,7.921823 6.346494,-3.326902 14.153547,-11.237066 17.778654,-20.006875 0.06083,2.543665 0.126069,3.797365 0.255586,6.214131 4.693001,-2.454562 11.230023,-8.222105 17.403252,-22.336887 0.604896,2.471418 0.696256,2.773478 1.389656,5.435417 7.25361,-18.769882 2.61753,-30.812556 2.61753,-30.812556"
       id="path705"
       sodipodi:nodetypes="ccccccccccccccccc" /><path
       style="display:inline;opacity:1;fill:#d9d9d9;fill-opacity:1;stroke-width:0.264583"
       d="m 102.20891,10.714317 0.37722,7.984546 c 0,0 21.4181,15.476153 8.19852,46.962825 5.69494,-4.815618 7.77219,-10.395104 7.77219,-10.395104 0,0 0.74837,21.526082 -29.331636,38.9337 7.610671,-0.334704 11.710836,-1.86269 11.710836,-1.86269 0,0 -15.522514,14.325986 -35.527767,14.859456 -3.935434,2.16391 -4.475215,2.62899 -6.939077,4.17855 5.566442,1.94691 15.606604,0.89183 15.606604,0.89183 0,0 -1.883039,-1.23446 -3.568393,-2.32744 17.160062,-1.15586 22.939359,-5.82376 22.939359,-5.82376 l -4.001053,-0.88912 c 0,0 18.671567,-5.067996 25.962377,-14.09259 -3.9567,0.43379 -6.53505,0.711298 -6.53505,0.711298 0,0 10.91104,-4.546845 16.73772,-19.205043 -8.00481,5.648957 -10.60278,5.334736 -10.60278,5.334736 0,0 12.60975,-18.060648 7.73537,-40.944088 -1.29076,4.339462 -2.09262,7.181542 -2.09262,7.181542 0,0 -0.11203,-9.058169 -8.15226,-20.40951 -6.51422,-9.196887 -10.28956,-11.089138 -10.28956,-11.089138 z"
       id="path704"
       sodipodi:nodetypes="ccccccccccccccccccsc" /><path
       style="display:inline;opacity:1;fill:#f0f0f0;fill-opacity:1;stroke-width:0.264583"
       d="m 102.57654,18.56694 c 0,0 -0.0874,2.227989 -0.18416,5.001619 3.36108,5.508494 3.06509,21.53784 -1.49809,32.858354 -0.60235,-2.196633 -1.422142,-5.548462 -1.422142,-5.548462 0,0 -3.957868,11.747173 -17.118764,22.47954 -0.509244,-3.585274 -0.512825,-6.218135 -0.512825,-6.218135 0,0 -7.378952,14.352454 -17.468096,19.727402 C 64.039484,84.53657 63.809132,82.334967 63.757705,79.05061 61.99872,80.296769 43.640338,96.038174 45.25633,102.78255 43.603059,105.88044 29.40391,120.62787 30.941459,147.23867 30.332477,131.04955 41.175886,113.92425 54.147553,106.51687 83.803556,90.446211 103.3805,74.161118 107.36916,48.693399 106.95688,87.227796 51.052461,111.53501 50.341163,112.24631 c 0.760414,0.87294 1.866119,1.50127 2.941075,2.19184 3.998435,-2.18576 6.219773,-3.77423 12.201628,-7.16553 9.188245,0.56953 22.356194,-4.36672 35.387074,-14.759434 -8.580031,1.733788 -11.647968,1.770618 -11.647968,1.770618 0,0 28.306988,-14.992031 29.314768,-38.975229 -6.22121,9.269569 -5.1149,7.883953 -7.71514,10.303816 12.37495,-28.46109 -4.60145,-43.697747 -4.60145,-43.697747"
       id="path703"
       sodipodi:nodetypes="cccccccccccccccccccc"
       inkscape:label="path703" /></g></svg>
